<svg xmlns="http://www.w3.org/2000/svg">
  <defs>
    <symbol id="sun" viewBox="0 0 20 20" xmlns="http://www.w3.org/2000/svg">
      <path
        d="M14.375 10C14.375 10.8653 14.1184 11.7112 13.6377 12.4306C13.157 13.1501 12.4737 13.7108 11.6742 14.042C10.8748 14.3731 9.99515 14.4597 9.14648 14.2909C8.29781 14.1221 7.51826 13.7054 6.90641 13.0936C6.29456 12.4817 5.87788 11.7022 5.70907 10.8535C5.54026 10.0049 5.6269 9.12519 5.95803 8.32576C6.28916 7.52633 6.84992 6.84305 7.56938 6.36232C8.28885 5.88159 9.13471 5.625 10 5.625C11.1603 5.625 12.2731 6.08594 13.0936 6.90641C13.9141 7.72688 14.375 8.83968 14.375 10Z"
        fill-opacity="0.4"
      />
      <path
        d="M9.375 3.125V1.25C9.375 1.08424 9.44085 0.925268 9.55806 0.808058C9.67527 0.690848 9.83424 0.625 10 0.625C10.1658 0.625 10.3247 0.690848 10.4419 0.808058C10.5592 0.925268 10.625 1.08424 10.625 1.25V3.125C10.625 3.29076 10.5592 3.44973 10.4419 3.56694C10.3247 3.68415 10.1658 3.75 10 3.75C9.83424 3.75 9.67527 3.68415 9.55806 3.56694C9.44085 3.44973 9.375 3.29076 9.375 3.125ZM15 10C15 10.9889 14.7068 11.9556 14.1573 12.7779C13.6079 13.6001 12.827 14.241 11.9134 14.6194C10.9998 14.9978 9.99445 15.0969 9.02455 14.9039C8.05464 14.711 7.16373 14.2348 6.46447 13.5355C5.7652 12.8363 5.289 11.9454 5.09607 10.9755C4.90315 10.0055 5.00216 9.00021 5.3806 8.08658C5.75904 7.17295 6.3999 6.39206 7.22215 5.84265C8.04439 5.29324 9.01109 5 10 5C11.3256 5.00145 12.5966 5.5287 13.5339 6.46606C14.4713 7.40343 14.9986 8.67436 15 10ZM13.75 10C13.75 9.25832 13.5301 8.5333 13.118 7.91661C12.706 7.29993 12.1203 6.81928 11.4351 6.53545C10.7498 6.25162 9.99584 6.17736 9.26841 6.32206C8.54098 6.46675 7.8728 6.8239 7.34835 7.34835C6.8239 7.8728 6.46675 8.54098 6.32206 9.26841C6.17736 9.99584 6.25162 10.7498 6.53545 11.4351C6.81928 12.1203 7.29993 12.706 7.91661 13.118C8.5333 13.5301 9.25832 13.75 10 13.75C10.9942 13.749 11.9475 13.3535 12.6505 12.6505C13.3535 11.9475 13.749 10.9942 13.75 10ZM4.55781 5.44219C4.67509 5.55946 4.83415 5.62535 5 5.62535C5.16585 5.62535 5.32491 5.55946 5.44219 5.44219C5.55946 5.32491 5.62535 5.16585 5.62535 5C5.62535 4.83415 5.55946 4.67509 5.44219 4.55781L4.19219 3.30781C4.07491 3.19054 3.91585 3.12465 3.75 3.12465C3.58415 3.12465 3.42509 3.19054 3.30781 3.30781C3.19054 3.42509 3.12465 3.58415 3.12465 3.75C3.12465 3.91585 3.19054 4.07491 3.30781 4.19219L4.55781 5.44219ZM4.55781 14.5578L3.30781 15.8078C3.19054 15.9251 3.12465 16.0841 3.12465 16.25C3.12465 16.4159 3.19054 16.5749 3.30781 16.6922C3.42509 16.8095 3.58415 16.8753 3.75 16.8753C3.91585 16.8753 4.07491 16.8095 4.19219 16.6922L5.44219 15.4422C5.50026 15.3841 5.54632 15.3152 5.57775 15.2393C5.60917 15.1634 5.62535 15.0821 5.62535 15C5.62535 14.9179 5.60917 14.8366 5.57775 14.7607C5.54632 14.6848 5.50026 14.6159 5.44219 14.5578C5.38412 14.4997 5.31518 14.4537 5.23931 14.4223C5.16344 14.3908 5.08212 14.3747 5 14.3747C4.91788 14.3747 4.83656 14.3908 4.76069 14.4223C4.68482 14.4537 4.61588 14.4997 4.55781 14.5578ZM15 5.625C15.0821 5.62506 15.1634 5.60895 15.2393 5.57759C15.3152 5.54622 15.3841 5.50021 15.4422 5.44219L16.6922 4.19219C16.8095 4.07491 16.8753 3.91585 16.8753 3.75C16.8753 3.58415 16.8095 3.42509 16.6922 3.30781C16.5749 3.19054 16.4159 3.12465 16.25 3.12465C16.0841 3.12465 15.9251 3.19054 15.8078 3.30781L14.5578 4.55781C14.4703 4.64522 14.4107 4.75663 14.3865 4.87793C14.3624 4.99924 14.3748 5.12498 14.4221 5.23924C14.4695 5.35351 14.5496 5.45116 14.6525 5.51982C14.7554 5.58849 14.8763 5.6251 15 5.625ZM15.4422 14.5578C15.3249 14.4405 15.1659 14.3747 15 14.3747C14.8341 14.3747 14.6751 14.4405 14.5578 14.5578C14.4405 14.6751 14.3747 14.8341 14.3747 15C14.3747 15.1659 14.4405 15.3249 14.5578 15.4422L15.8078 16.6922C15.8659 16.7503 15.9348 16.7963 16.0107 16.8277C16.0866 16.8592 16.1679 16.8753 16.25 16.8753C16.3321 16.8753 16.4134 16.8592 16.4893 16.8277C16.5652 16.7963 16.6341 16.7503 16.6922 16.6922C16.7503 16.6341 16.7963 16.5652 16.8277 16.4893C16.8592 16.4134 16.8753 16.3321 16.8753 16.25C16.8753 16.1679 16.8592 16.0866 16.8277 16.0107C16.7963 15.9348 16.7503 15.8659 16.6922 15.8078L15.4422 14.5578ZM3.75 10C3.75 9.83424 3.68415 9.67527 3.56694 9.55806C3.44973 9.44085 3.29076 9.375 3.125 9.375H1.25C1.08424 9.375 0.925268 9.44085 0.808058 9.55806C0.690848 9.67527 0.625 9.83424 0.625 10C0.625 10.1658 0.690848 10.3247 0.808058 10.4419C0.925268 10.5592 1.08424 10.625 1.25 10.625H3.125C3.29076 10.625 3.44973 10.5592 3.56694 10.4419C3.68415 10.3247 3.75 10.1658 3.75 10ZM10 16.25C9.83424 16.25 9.67527 16.3158 9.55806 16.4331C9.44085 16.5503 9.375 16.7092 9.375 16.875V18.75C9.375 18.9158 9.44085 19.0747 9.55806 19.1919C9.67527 19.3092 9.83424 19.375 10 19.375C10.1658 19.375 10.3247 19.3092 10.4419 19.1919C10.5592 19.0747 10.625 18.9158 10.625 18.75V16.875C10.625 16.7092 10.5592 16.5503 10.4419 16.4331C10.3247 16.3158 10.1658 16.25 10 16.25ZM18.75 9.375H16.875C16.7092 9.375 16.5503 9.44085 16.4331 9.55806C16.3158 9.67527 16.25 9.83424 16.25 10C16.25 10.1658 16.3158 10.3247 16.4331 10.4419C16.5503 10.5592 16.7092 10.625 16.875 10.625H18.75C18.9158 10.625 19.0747 10.5592 19.1919 10.4419C19.3092 10.3247 19.375 10.1658 19.375 10C19.375 9.83424 19.3092 9.67527 19.1919 9.55806C19.0747 9.44085 18.9158 9.375 18.75 9.375Z"
      />
    </symbol>
    <symbol id="moon" xmlns="http://www.w3.org/2000/svg" viewBox="0 0 512 512">
      <path
        d="M256 0C114.6 0 0 114.6 0 256S114.6 512 256 512c68.8 0 131.3-27.2 177.3-71.4 7.3-7 9.4-17.9 5.3-27.1s-13.7-14.9-23.8-14.1c-4.9 .4-9.8 .6-14.8 .6-101.6 0-184-82.4-184-184 0-72.1 41.5-134.6 102.1-164.8 9.1-4.5 14.3-14.3 13.1-24.4S322.6 8.5 312.7 6.3C294.4 2.2 275.4 0 256 0z"
        fill-opacity="0.4"
      />
    </symbol>
    <symbol
      id="envelope"
      xmlns="http://www.w3.org/2000/svg"
      viewBox="0 0 640 640"
    >
      <path
        d="M125.4 128C91.5 128 64 155.5 64 189.4C64 190.3 64 191.1 64.1 192L64 192L64 448C64 483.3 92.7 512 128 512L512 512C547.3 512 576 483.3 576 448L576 192L575.9 192C575.9 191.1 576 190.3 576 189.4C576 155.5 548.5 128 514.6 128L125.4 128zM528 256.3L528 448C528 456.8 520.8 464 512 464L128 464C119.2 464 112 456.8 112 448L112 256.3L266.8 373.7C298.2 397.6 341.7 397.6 373.2 373.7L528 256.3zM112 189.4C112 182 118 176 125.4 176L514.6 176C522 176 528 182 528 189.4C528 193.6 526 197.6 522.7 200.1L344.2 335.5C329.9 346.3 310.1 346.3 295.8 335.5L117.3 200.1C114 197.6 112 193.6 112 189.4z"
      />
    </symbol>
    <symbol
      id="github"
      xmlns="http://www.w3.org/2000/svg"
      viewBox="0 0 640 640"
    >
      <path
        d="M237.9 461.4C237.9 463.4 235.6 465 232.7 465C229.4 465.3 227.1 463.7 227.1 461.4C227.1 459.4 229.4 457.8 232.3 457.8C235.3 457.5 237.9 459.1 237.9 461.4zM206.8 456.9C206.1 458.9 208.1 461.2 211.1 461.8C213.7 462.8 216.7 461.8 217.3 459.8C217.9 457.8 216 455.5 213 454.6C210.4 453.9 207.5 454.9 206.8 456.9zM251 455.2C248.1 455.9 246.1 457.8 246.4 460.1C246.7 462.1 249.3 463.4 252.3 462.7C255.2 462 257.2 460.1 256.9 458.1C256.6 456.2 253.9 454.9 251 455.2zM316.8 72C178.1 72 72 177.3 72 316C72 426.9 141.8 521.8 241.5 555.2C254.3 557.5 258.8 549.6 258.8 543.1C258.8 536.9 258.5 502.7 258.5 481.7C258.5 481.7 188.5 496.7 173.8 451.9C173.8 451.9 162.4 422.8 146 415.3C146 415.3 123.1 399.6 147.6 399.9C147.6 399.9 172.5 401.9 186.2 425.7C208.1 464.3 244.8 453.2 259.1 446.6C261.4 430.6 267.9 419.5 275.1 412.9C219.2 406.7 162.8 398.6 162.8 302.4C162.8 274.9 170.4 261.1 186.4 243.5C183.8 237 175.3 210.2 189 175.6C209.9 169.1 258 202.6 258 202.6C278 197 299.5 194.1 320.8 194.1C342.1 194.1 363.6 197 383.6 202.6C383.6 202.6 431.7 169 452.6 175.6C466.3 210.3 457.8 237 455.2 243.5C471.2 261.2 481 275 481 302.4C481 398.9 422.1 406.6 366.2 412.9C375.4 420.8 383.2 435.8 383.2 459.3C383.2 493 382.9 534.7 382.9 542.9C382.9 549.4 387.5 557.3 400.2 555C500.2 521.8 568 426.9 568 316C568 177.3 455.5 72 316.8 72zM169.2 416.9C167.9 417.9 168.2 420.2 169.9 422.1C171.5 423.7 173.8 424.4 175.1 423.1C176.4 422.1 176.1 419.8 174.4 417.9C172.8 416.3 170.5 415.6 169.2 416.9zM158.4 408.8C157.7 410.1 158.7 411.7 160.7 412.7C162.3 413.7 164.3 413.4 165 412C165.7 410.7 164.7 409.1 162.7 408.1C160.7 407.5 159.1 407.8 158.4 408.8zM190.8 444.4C189.2 445.7 189.8 448.7 192.1 450.6C194.4 452.9 197.3 453.2 198.6 451.6C199.9 450.3 199.3 447.3 197.3 445.4C195.1 443.1 192.1 442.8 190.8 444.4zM179.4 429.7C177.8 430.7 177.8 433.3 179.4 435.6C181 437.9 183.7 438.9 185 437.9C186.6 436.6 186.6 434 185 431.7C183.6 429.4 181 428.4 179.4 429.7z"
      />
    </symbol>
    <symbol
      id="location"
      xmlns="http://www.w3.org/2000/svg"
      viewBox="0 0 640 640"
    >
      <path
        d="M128 252.6C128 148.4 214 64 320 64C426 64 512 148.4 512 252.6C512 371.9 391.8 514.9 341.6 569.4C329.8 582.2 310.1 582.2 298.3 569.4C248.1 514.9 127.9 371.9 127.9 252.6zM320 320C355.3 320 384 291.3 384 256C384 220.7 355.3 192 320 192C284.7 192 256 220.7 256 256C256 291.3 284.7 320 320 320z"
      />
    </symbol>
    <symbol
      id="graduation-cap"
      xmlns="http://www.w3.org/2000/svg"
      viewBox="0 0 640 640"
    >
      <path
        d="M80 259.8L289.2 345.9C299 349.9 309.4 352 320 352C330.6 352 341 349.9 350.8 345.9L593.2 246.1C602.2 242.4 608 233.7 608 224C608 214.3 602.2 205.6 593.2 201.9L350.8 102.1C341 98.1 330.6 96 320 96C309.4 96 299 98.1 289.2 102.1L46.8 201.9C37.8 205.6 32 214.3 32 224L32 520C32 533.3 42.7 544 56 544C69.3 544 80 533.3 80 520L80 259.8zM128 331.5L128 448C128 501 214 544 320 544C426 544 512 501 512 448L512 331.4L369.1 390.3C353.5 396.7 336.9 400 320 400C303.1 400 286.5 396.7 270.9 390.3L128 331.4z"
      />
    </symbol>
    <symbol
      id="briefcase"
      xmlns="http://www.w3.org/2000/svg"
      viewBox="0 0 640 640"
    >
      <path
        d="M264 112L376 112C380.4 112 384 115.6 384 120L384 160L256 160L256 120C256 115.6 259.6 112 264 112zM208 120L208 160L128 160C92.7 160 64 188.7 64 224L64 320L576 320L576 224C576 188.7 547.3 160 512 160L432 160L432 120C432 89.1 406.9 64 376 64L264 64C233.1 64 208 89.1 208 120zM576 368L384 368L384 384C384 401.7 369.7 416 352 416L288 416C270.3 416 256 401.7 256 384L256 368L64 368L64 480C64 515.3 92.7 544 128 544L512 544C547.3 544 576 515.3 576 480L576 368z"
      />
    </symbol>
    <symbol id="phone" xmlns="http://www.w3.org/2000/svg" viewBox="0 0 640 640">
      <path
        d="M224.2 89C216.3 70.1 195.7 60.1 176.1 65.4L170.6 66.9C106 84.5 50.8 147.1 66.9 223.3C104 398.3 241.7 536 416.7 573.1C493 589.3 555.5 534 573.1 469.4L574.6 463.9C580 444.2 569.9 423.6 551.1 415.8L453.8 375.3C437.3 368.4 418.2 373.2 406.8 387.1L368.2 434.3C297.9 399.4 241.3 341 208.8 269.3L253 233.3C266.9 222 271.6 202.9 264.8 186.3L224.2 89z"
      />
    </symbol>
    <symbol id="code" xmlns="http://www.w3.org/2000/svg" viewBox="0 0 640 640">
      <path
        d="M392.8 65.2C375.8 60.3 358.1 70.2 353.2 87.2L225.2 535.2C220.3 552.2 230.2 569.9 247.2 574.8C264.2 579.7 281.9 569.8 286.8 552.8L414.8 104.8C419.7 87.8 409.8 70.1 392.8 65.2zM457.4 201.3C444.9 213.8 444.9 234.1 457.4 246.6L530.8 320L457.4 393.4C444.9 405.9 444.9 426.2 457.4 438.7C469.9 451.2 490.2 451.2 502.7 438.7L598.7 342.7C611.2 330.2 611.2 309.9 598.7 297.4L502.7 201.4C490.2 188.9 469.9 188.9 457.4 201.4zM182.7 201.3C170.2 188.8 149.9 188.8 137.4 201.3L41.4 297.3C28.9 309.8 28.9 330.1 41.4 342.6L137.4 438.6C149.9 451.1 170.2 451.1 182.7 438.6C195.2 426.1 195.2 405.8 182.7 393.3L109.3 320L182.6 246.6C195.1 234.1 195.1 213.8 182.6 201.3z"
      />
    </symbol>
    <symbol
      id="desktop"
      xmlns="http://www.w3.org/2000/svg"
      viewBox="0 0 640 640"
    >
      <path
        d="M128 96C92.7 96 64 124.7 64 160L64 416C64 451.3 92.7 480 128 480L272 480L256 528L184 528C170.7 528 160 538.7 160 552C160 565.3 170.7 576 184 576L456 576C469.3 576 480 565.3 480 552C480 538.7 469.3 528 456 528L384 528L368 480L512 480C547.3 480 576 451.3 576 416L576 160C576 124.7 547.3 96 512 96L128 96zM160 160L480 160C497.7 160 512 174.3 512 192L512 352C512 369.7 497.7 384 480 384L160 384C142.3 384 128 369.7 128 352L128 192C128 174.3 142.3 160 160 160z"
      />
    </symbol>
    <symbol id="gear" xmlns="http://www.w3.org/2000/svg" viewBox="0 0 640 640">
      <path
        d="M259.1 73.5C262.1 58.7 275.2 48 290.4 48L350.2 48C365.4 48 378.5 58.7 381.5 73.5L396 143.5C410.1 149.5 423.3 157.2 435.3 166.3L503.1 143.8C517.5 139 533.3 145 540.9 158.2L570.8 210C578.4 223.2 575.7 239.8 564.3 249.9L511 297.3C511.9 304.7 512.3 312.3 512.3 320C512.3 327.7 511.8 335.3 511 342.7L564.4 390.2C575.8 400.3 578.4 417 570.9 430.1L541 481.9C533.4 495 517.6 501.1 503.2 496.3L435.4 473.8C423.3 482.9 410.1 490.5 396.1 496.6L381.7 566.5C378.6 581.4 365.5 592 350.4 592L290.6 592C275.4 592 262.3 581.3 259.3 566.5L244.9 496.6C230.8 490.6 217.7 482.9 205.6 473.8L137.5 496.3C123.1 501.1 107.3 495.1 99.7 481.9L69.8 430.1C62.2 416.9 64.9 400.3 76.3 390.2L129.7 342.7C128.8 335.3 128.4 327.7 128.4 320C128.4 312.3 128.9 304.7 129.7 297.3L76.3 249.8C64.9 239.7 62.3 223 69.8 209.9L99.7 158.1C107.3 144.9 123.1 138.9 137.5 143.7L205.3 166.2C217.4 157.1 230.6 149.5 244.6 143.4L259.1 73.5zM320.3 400C364.5 399.8 400.2 363.9 400 319.7C399.8 275.5 363.9 239.8 319.7 240C275.5 240.2 239.8 276.1 240 320.3C240.2 364.5 276.1 400.2 320.3 400z"
      />
    </symbol>
    <symbol
      id="database"
      xmlns="http://www.w3.org/2000/svg"
      viewBox="0 0 640 640"
    >
      <path
        d="M160 96C124.7 96 96 124.7 96 160L96 224C96 259.3 124.7 288 160 288L480 288C515.3 288 544 259.3 544 224L544 160C544 124.7 515.3 96 480 96L160 96zM376 168C389.3 168 400 178.7 400 192C400 205.3 389.3 216 376 216C362.7 216 352 205.3 352 192C352 178.7 362.7 168 376 168zM432 192C432 178.7 442.7 168 456 168C469.3 168 480 178.7 480 192C480 205.3 469.3 216 456 216C442.7 216 432 205.3 432 192zM160 352C124.7 352 96 380.7 96 416L96 480C96 515.3 124.7 544 160 544L480 544C515.3 544 544 515.3 544 480L544 416C544 380.7 515.3 352 480 352L160 352zM376 424C389.3 424 400 434.7 400 448C400 461.3 389.3 472 376 472C362.7 472 352 461.3 352 448C352 434.7 362.7 424 376 424zM432 448C432 434.7 442.7 424 456 424C469.3 424 480 434.7 480 448C480 461.3 469.3 472 456 472C442.7 472 432 461.3 432 448z"
      />
    </symbol>
    <symbol id="tools" xmlns="http://www.w3.org/2000/svg" viewBox="0 0 640 640">
      <path
        d="M102.8 57.3C108.2 51.9 116.6 51.1 123 55.3L241.9 134.5C250.8 140.4 256.1 150.4 256.1 161.1L256.1 210.7L346.9 301.5C380.2 286.5 420.8 292.6 448.1 320L574.2 446.1C592.9 464.8 592.9 495.2 574.2 514L514.1 574.1C495.4 592.8 465 592.8 446.2 574.1L320.1 448C292.7 420.6 286.6 380.1 301.6 346.8L210.8 256L161.2 256C150.5 256 140.5 250.7 134.6 241.8L55.4 122.9C51.2 116.6 52 108.1 57.4 102.7L102.8 57.3zM247.8 360.8C241.5 397.7 250.1 436.7 274 468L179.1 563C151 591.1 105.4 591.1 77.3 563C49.2 534.9 49.2 489.3 77.3 461.2L212.7 325.7L247.9 360.8zM416.1 64C436.2 64 455.5 67.7 473.2 74.5C483.2 78.3 485 91 477.5 98.6L420.8 155.3C417.8 158.3 416.1 162.4 416.1 166.6L416.1 208C416.1 216.8 423.3 224 432.1 224L473.5 224C477.7 224 481.8 222.3 484.8 219.3L541.5 162.6C549.1 155.1 561.8 156.9 565.6 166.9C572.4 184.6 576.1 203.9 576.1 224C576.1 267.2 558.9 306.3 531.1 335.1L482 286C448.9 253 403.5 240.3 360.9 247.6L304.1 190.8L304.1 161.1L303.9 156.1C303.1 143.7 299.5 131.8 293.4 121.2C322.8 86.2 366.8 64 416.1 63.9z"
      />
    </symbol>
    <symbol
      id="arrows-rotate"
      xmlns="http://www.w3.org/2000/svg"
      viewBox="0 0 640 640"
    >
      <path
        d="M129.9 292.5C143.2 199.5 223.3 128 320 128C373 128 421 149.5 455.8 184.2C456 184.4 456.2 184.6 456.4 184.8L464 192L416.1 192C398.4 192 384.1 206.3 384.1 224C384.1 241.7 398.4 256 416.1 256L544.1 256C561.8 256 576.1 241.7 576.1 224L576.1 96C576.1 78.3 561.8 64 544.1 64C526.4 64 512.1 78.3 512.1 96L512.1 149.4L500.8 138.7C454.5 92.6 390.5 64 320 64C191 64 84.3 159.4 66.6 283.5C64.1 301 76.2 317.2 93.7 319.7C111.2 322.2 127.4 310 129.9 292.6zM573.4 356.5C575.9 339 563.7 322.8 546.3 320.3C528.9 317.8 512.6 330 510.1 347.4C496.8 440.4 416.7 511.9 320 511.9C267 511.9 219 490.4 184.2 455.7C184 455.5 183.8 455.3 183.6 455.1L176 447.9L223.9 447.9C241.6 447.9 255.9 433.6 255.9 415.9C255.9 398.2 241.6 383.9 223.9 383.9L96 384C87.5 384 79.3 387.4 73.3 393.5C67.3 399.6 63.9 407.7 64 416.3L65 543.3C65.1 561 79.6 575.2 97.3 575C115 574.8 129.2 560.4 129 542.7L128.6 491.2L139.3 501.3C185.6 547.4 249.5 576 320 576C449 576 555.7 480.6 573.4 356.5z"
      />
    </symbol>
    <symbol
      id="arrow-right"
      xmlns="http://www.w3.org/2000/svg"
      viewBox="0 0 640 640"
    >
      <path
        d="M566.6 342.6C579.1 330.1 579.1 309.8 566.6 297.3L406.6 137.3C394.1 124.8 373.8 124.8 361.3 137.3C348.8 149.8 348.8 170.1 361.3 182.6L466.7 288L96 288C78.3 288 64 302.3 64 320C64 337.7 78.3 352 96 352L466.7 352L361.3 457.4C348.8 469.9 348.8 490.2 361.3 502.7C373.8 515.2 394.1 515.2 406.6 502.7L566.6 342.7z"
      />
    </symbol>
    <symbol
      id="caret-down"
      xmlns="http://www.w3.org/2000/svg"
      viewBox="0 0 640 640"
    >
      <path
        d="M300.3 440.8C312.9 451 331.4 450.3 343.1 438.6L471.1 310.6C480.3 301.4 483 287.7 478 275.7C473 263.7 461.4 256 448.5 256L192.5 256C179.6 256 167.9 263.8 162.9 275.8C157.9 287.8 160.7 301.5 169.9 310.6L297.9 438.6L300.3 440.8z"
      />
    </symbol>
    <symbol
      id="truck-fast"
      xmlns="http://www.w3.org/2000/svg"
      viewBox="0 0 640 640"
    >
      <path
        d="M64 160C64 124.7 92.7 96 128 96L416 96C451.3 96 480 124.7 480 160L480 192L530.7 192C547.7 192 564 198.7 576 210.7L621.3 256C633.3 268 640 284.3 640 301.3L640 448C640 483.3 611.3 512 576 512L572.7 512C562.3 548.9 528.3 576 488 576C447.7 576 413.8 548.9 403.3 512L300.7 512C290.3 548.9 256.3 576 216 576C175.7 576 141.8 548.9 131.3 512L128 512C92.7 512 64 483.3 64 448L64 400L24 400C10.7 400 0 389.3 0 376C0 362.7 10.7 352 24 352L136 352C149.3 352 160 341.3 160 328C160 314.7 149.3 304 136 304L24 304C10.7 304 0 293.3 0 280C0 266.7 10.7 256 24 256L200 256C213.3 256 224 245.3 224 232C224 218.7 213.3 208 200 208L24 208C10.7 208 0 197.3 0 184C0 170.7 10.7 160 24 160L64 160zM576 352L576 301.3L530.7 256L480 256L480 352L576 352zM256 488C256 465.9 238.1 448 216 448C193.9 448 176 465.9 176 488C176 510.1 193.9 528 216 528C238.1 528 256 510.1 256 488zM488 528C510.1 528 528 510.1 528 488C528 465.9 510.1 448 488 448C465.9 448 448 465.9 448 488C448 510.1 465.9 528 488 528z"
      />
    </symbol>
    <symbol id="car" xmlns="http://www.w3.org/2000/svg" viewBox="0 0 640 640">
      <path
        d="M147 170.7L117.2 256L240.1 256L240.1 160L162.2 160C155.4 160 149.3 164.3 147.1 170.7zM48.6 257.9L86.5 149.6C97.8 117.5 128.1 96 162.1 96L360 96C385.2 96 408.9 107.9 424 128L520.2 256.3C587.1 260.5 640 316.1 640 384L640 400C640 435.3 611.3 464 576 464L559.6 464C555.6 508.9 517.9 544 472 544C426.1 544 388.4 508.9 384.4 464L239.7 464C235.7 508.9 198 544 152.1 544C106.2 544 68.5 508.9 64.5 464L64.1 464C28.8 464 .1 435.3 .1 400L.1 320C.1 289.9 20.8 264.7 48.7 257.9zM440 256L372.8 166.4C369.8 162.4 365 160 360 160L288 160L288 256L440 256zM152 496C174.1 496 192 478.1 192 456C192 433.9 174.1 416 152 416C129.9 416 112 433.9 112 456C112 478.1 129.9 496 152 496zM512 456C512 433.9 494.1 416 472 416C449.9 416 432 433.9 432 456C432 478.1 449.9 496 472 496C494.1 496 512 478.1 512 456z"
      />
    </symbol>
    <symbol
      id="cash-app"
      xmlns="http://www.w3.org/2000/svg"
      viewBox="0 0 640 640"
    >
      <path
        d="M536.3 160.9C526.9 134.4 506 113.5 479.5 103.9C455.4 96 433.2 96 387.9 96L252 96C207.2 96 184.8 96 160.7 103.5C134.2 113.1 113.3 134 103.7 160.5C96 184.8 96 207.2 96 252.2L96 387.8C96 433 96 455.2 103.5 479.3C113.1 505.8 134 526.7 160.5 536.3C184.8 544 207.2 544 252.1 544L387.8 544C432.8 544 455.2 544 479.4 536.3C505.9 526.7 526.8 505.8 536.4 479.3C544.1 455 544.1 432.6 544.1 387.8L544.1 252.3C544.1 207.3 544.1 184.9 536.4 160.8zM419.1 249.4L393.3 270.5C391 272.4 387.8 272 386 269.6C372.8 253.4 352.3 244.2 329.9 244.2C304.9 244.2 289.3 255.1 289.3 270.4C288.9 283.2 301 290 338.4 298.1C385.6 308.1 407.1 327.8 407.1 360.8C407.1 402.2 373.4 432.7 320.7 436.1L315.6 460.6C315.2 462.9 313 464.7 310.5 464.7L269.9 464.7C266.5 464.7 264.1 461.5 264.8 458.3L271.2 431C245.2 423.5 224 409 211.9 391.3C210.4 389 210.8 386 213 384.3L241.2 362.3C243.5 360.4 247 361 248.7 363.4C263.6 384.3 286.7 396.7 314.4 396.7C339.4 396.7 358.2 384.5 358.2 367C358.2 353.6 348.8 347.4 317 340.8C262.8 329.1 241.2 309 241.2 275.9C241.2 237.5 273.4 208.7 322.1 204.9L327.4 179.5C327.8 177.2 330 175.4 332.5 175.4L372.4 175.4C375.6 175.4 378.2 178.4 377.5 181.6L371.3 210C392.2 216.4 409.3 227.9 420 242.2C421.7 244.3 421.3 247.5 419.1 249.2z"
      />
    </symbol>
    <symbol
      id="plane-departure"
      xmlns="http://www.w3.org/2000/svg"
      viewBox="0 0 640 640"
    >
      <path
        d="M404 207.9L204.7 104.2C196.7 100.1 187.4 99.4 179 102.5L137.9 117.5C127.6 121.2 124.1 133.9 130.8 142.5L232.3 270.4L132.1 306.8L72 270.2C65.8 266.4 58.2 265.7 51.3 268.1L35 274.1C25.6 277.5 21.6 288.6 26.7 297.2L80.3 389C95.9 415.7 128.4 427.4 157.4 416.8L170.3 412.1L170.3 412.1L568.7 267.1C597.8 256.5 612.7 224.4 602.2 195.3C591.7 166.2 559.5 151.3 530.4 161.8L404 207.9zM64.2 512C46.5 512 32.2 526.3 32.2 544C32.2 561.7 46.5 576 64.2 576L576.2 576C593.9 576 608.2 561.7 608.2 544C608.2 526.3 593.9 512 576.2 512L64.2 512z"
      />
    </symbol>
    <symbol
      id="chart-simple"
      xmlns="http://www.w3.org/2000/svg"
      viewBox="0 0 640 640"
    >
      <path
        d="M256 144C256 117.5 277.5 96 304 96L336 96C362.5 96 384 117.5 384 144L384 496C384 522.5 362.5 544 336 544L304 544C277.5 544 256 522.5 256 496L256 144zM64 336C64 309.5 85.5 288 112 288L144 288C170.5 288 192 309.5 192 336L192 496C192 522.5 170.5 544 144 544L112 544C85.5 544 64 522.5 64 496L64 336zM496 160L528 160C554.5 160 576 181.5 576 208L576 496C576 522.5 554.5 544 528 544L496 544C469.5 544 448 522.5 448 496L448 208C448 181.5 469.5 160 496 160z"
      />
    </symbol>
    <symbol id="star" xmlns="http://www.w3.org/2000/svg" viewBox="0 0 640 640">
      <path
        d="M341.5 45.1C337.4 37.1 329.1 32 320.1 32C311.1 32 302.8 37.1 298.7 45.1L225.1 189.3L65.2 214.7C56.3 216.1 48.9 222.4 46.1 231C43.3 239.6 45.6 249 51.9 255.4L166.3 369.9L141.1 529.8C139.7 538.7 143.4 547.7 150.7 553C158 558.3 167.6 559.1 175.7 555L320.1 481.6L464.4 555C472.4 559.1 482.1 558.3 489.4 553C496.7 547.7 500.4 538.8 499 529.8L473.7 369.9L588.1 255.4C594.5 249 596.7 239.6 593.9 231C591.1 222.4 583.8 216.1 574.8 214.7L415 189.3L341.5 45.1z"
      />
    </symbol>
    <symbol
      id="calendar"
      xmlns="http://www.w3.org/2000/svg"
      viewBox="0 0 640 640"
    >
      <path
        d="M224 64C206.3 64 192 78.3 192 96L192 128L160 128C124.7 128 96 156.7 96 192L96 240L544 240L544 192C544 156.7 515.3 128 480 128L448 128L448 96C448 78.3 433.7 64 416 64C398.3 64 384 78.3 384 96L384 128L256 128L256 96C256 78.3 241.7 64 224 64zM96 288L96 480C96 515.3 124.7 544 160 544L480 544C515.3 544 544 515.3 544 480L544 288L96 288z"
      />
    </symbol>
    <symbol
      id="puzzle-piece"
      xmlns="http://www.w3.org/2000/svg"
      viewBox="0 0 640 640"
    >
      <path
        d="M288 64C323.3 64 352 85.5 352 112C352 122.4 347.6 132 340 139.9C333.4 146.8 328 155.2 328 164.8C328 179.8 340.2 192 355.2 192L400 192C426.5 192 448 213.5 448 240L448 284.8C448 299.8 460.2 312 475.2 312C484.7 312 493.2 306.6 500.1 300C508 292.5 517.6 288 528 288C554.5 288 576 316.7 576 352C576 387.3 554.5 416 528 416C517.6 416 507.9 411.6 500.1 404C493.2 397.4 484.8 392 475.2 392C460.2 392 448 404.2 448 419.2L448 528C448 554.5 426.5 576 400 576L343.2 576C330.4 576 320 565.6 320 552.8C320 543.6 325.8 535.5 333.2 530C344.8 521.3 352 509.3 352 496C352 469.5 323.3 448 288 448C252.7 448 224 469.5 224 496C224 509.3 231.2 521.3 242.8 530C250.2 535.5 256 543.5 256 552.8C256 565.6 245.6 576 232.8 576L112 576C85.5 576 64 554.5 64 528L64 407.2C64 394.4 74.4 384 87.2 384C96.4 384 104.5 389.8 110 397.2C118.7 408.8 130.7 416 144 416C170.5 416 192 387.3 192 352C192 316.7 170.5 288 144 288C130.7 288 118.7 295.2 110 306.8C104.5 314.2 96.5 320 87.2 320C74.4 320 64 309.6 64 296.8L64 240C64 213.5 85.5 192 112 192L220.8 192C235.8 192 248 179.8 248 164.8C248 155.3 242.6 146.8 236 139.9C228.5 132 224 122.4 224 112C224 85.5 252.7 64 288 64z"
      />
    </symbol>
    <symbol
      id="trophy"
      xmlns="http://www.w3.org/2000/svg"
      viewBox="0 0 640 640"
    >
      <path
        d="M208.3 64L432.3 64C458.8 64 480.4 85.8 479.4 112.2C479.2 117.5 479 122.8 478.7 128L528.3 128C554.4 128 577.4 149.6 575.4 177.8C567.9 281.5 514.9 338.5 457.4 368.3C441.6 376.5 425.5 382.6 410.2 387.1C390 415.7 369 430.8 352.3 438.9L352.3 512L416.3 512C434 512 448.3 526.3 448.3 544C448.3 561.7 434 576 416.3 576L224.3 576C206.6 576 192.3 561.7 192.3 544C192.3 526.3 206.6 512 224.3 512L288.3 512L288.3 438.9C272.3 431.2 252.4 416.9 233 390.6C214.6 385.8 194.6 378.5 175.1 367.5C121 337.2 72.2 280.1 65.2 177.6C63.3 149.5 86.2 127.9 112.3 127.9L161.9 127.9C161.6 122.7 161.4 117.5 161.2 112.1C160.2 85.6 181.8 63.9 208.3 63.9zM165.5 176L113.1 176C119.3 260.7 158.2 303.1 198.3 325.6C183.9 288.3 172 239.6 165.5 176zM444 320.8C484.5 297 521.1 254.7 527.3 176L475 176C468.8 236.9 457.6 284.2 444 320.8z"
      />
    </symbol>
    <symbol
      id="podcast"
      xmlns="http://www.w3.org/2000/svg"
      viewBox="0 0 640 640"
    >
      <path
        d="M432 423.8C471.1 391.5 496 342.7 496 288C496 190.8 417.2 112 320 112C222.8 112 144 190.8 144 288C144 342.7 168.9 391.5 208 423.8C208.4 441.4 211.2 464.2 214.4 485.6C144 447.9 96 373.5 96 288C96 164.3 196.3 64 320 64C443.7 64 544 164.3 544 288C544 373.6 496 447.9 425.5 485.6C428.8 464.2 431.5 441.4 431.9 423.8zM418 370.4C409.7 357.8 398.8 348.8 387.6 342.6C385.5 341.5 383.4 340.4 381.3 339.4C393 325.5 400.1 307.5 400.1 287.9C400.1 243.7 364.3 207.9 320.1 207.9C275.9 207.9 240.1 243.7 240.1 287.9C240.1 307.5 247.2 325.5 258.9 339.4C256.8 340.4 254.7 341.4 252.6 342.6C241.4 348.8 230.5 357.8 222.2 370.4C203.4 348.1 192.1 319.4 192.1 288C192.1 217.3 249.4 160 320.1 160C390.8 160 448.1 217.3 448.1 288C448.1 319.4 436.8 348.2 418 370.4zM320 376C352.9 376 384 384.6 384 419.8C384 452.8 371.1 523.9 363.4 552.7C358.3 571.7 338.9 576.1 320 576.1C301.1 576.1 281.8 571.7 276.6 552.7C268.8 524.2 256 453 256 419.9C256 384.8 287.1 376.1 320 376.1zM320 248C342.1 248 360 265.9 360 288C360 310.1 342.1 328 320 328C297.9 328 280 310.1 280 288C280 265.9 297.9 248 320 248z"
      />
    </symbol>
    <symbol
      id="linkedin"
      xmlns="http://www.w3.org/2000/svg"
      viewBox="0 0 640 640"
    >
      <path
        d="M160 96C124.7 96 96 124.7 96 160L96 480C96 515.3 124.7 544 160 544L480 544C515.3 544 544 515.3 544 480L544 160C544 124.7 515.3 96 480 96L160 96zM165 266.2L231.5 266.2L231.5 480L165 480L165 266.2zM236.7 198.5C236.7 219.8 219.5 237 198.2 237C176.9 237 159.7 219.8 159.7 198.5C159.7 177.2 176.9 160 198.2 160C219.5 160 236.7 177.2 236.7 198.5zM413.9 480L413.9 376C413.9 351.2 413.4 319.3 379.4 319.3C344.8 319.3 339.5 346.3 339.5 374.2L339.5 480L273.1 480L273.1 266.2L336.8 266.2L336.8 295.4L337.7 295.4C346.6 278.6 368.3 260.9 400.6 260.9C467.8 260.9 480.3 305.2 480.3 362.8L480.3 480L413.9 480z"
      />
    </symbol>
  </defs>
</svg>
